<svg width="41" height="42" viewBox="0 0 41 42" fill="none" xmlns="http://www.w3.org/2000/svg">
<path d="M5.944 36.424V37H4.744V38.688H3.992V36.176C3.68 36.728 3.136 37.04 2.416 37.04C1.2 37.04 0.376 36.152 0.376 34.872C0.376 33.608 1.208 32.736 2.4 32.736C3.128 32.736 3.68 33.048 3.992 33.6V32.768H4.744V36.424H5.944ZM2.56 36.4C3.4 36.4 3.992 35.776 3.992 34.896C3.992 34.008 3.4 33.384 2.56 33.384C1.728 33.384 1.136 34.016 1.128 34.896C1.136 35.776 1.72 36.4 2.56 36.4ZM7.33175 38.112H8.53175V38.688H6.57975V32.768H7.33175V38.112ZM14.5796 32.768H15.3236V37H14.5796V36.144C14.3156 36.752 13.8196 37.016 13.1716 37.024C12.2916 37.024 11.7636 36.408 11.7636 35.384V33.344H10.0036V38.688H9.25163V30.944H10.0036V32.768H12.5076V35.184C12.5076 35.904 12.8036 36.328 13.4276 36.328C14.0756 36.304 14.4916 35.824 14.5796 35.128V32.768ZM22.3505 32.768H23.0945V37H22.3505V36.144C22.0865 36.752 21.5905 37.016 20.9425 37.024C20.2305 37.024 19.7585 36.632 19.5985 35.952C19.3585 36.688 18.8305 37.016 18.1185 37.024C17.2305 37.024 16.7105 36.408 16.7105 35.384V32.768H17.4545V35.184C17.4545 35.904 17.7585 36.328 18.3745 36.328C19.1025 36.304 19.5345 35.696 19.5345 34.856V32.768H20.2785V35.184C20.2785 35.904 20.5745 36.328 21.1985 36.328C21.8385 36.304 22.2625 35.824 22.3505 35.128V32.768ZM28.3561 38.112H29.5561V38.688H27.6041V36.104C27.3161 36.736 26.7721 37.016 26.0441 37.024C25.0601 37.024 24.4761 36.408 24.4761 35.384V32.768H25.2201V35.184C25.2201 35.896 25.6361 36.32 26.3161 36.32C27.1241 36.304 27.6041 35.688 27.6041 34.848V30.944H28.3561V38.112ZM32.3849 32.744C33.3849 32.744 33.9849 33.368 33.9849 34.384V37H33.2329V34.584C33.2329 33.872 32.8089 33.448 32.1049 33.448C31.3369 33.464 30.8489 33.984 30.7849 34.736V37H30.0329V32.768H30.7849V33.648C31.0809 33.024 31.6409 32.752 32.3849 32.744ZM37.713 32.744C38.713 32.744 39.313 33.368 39.313 34.384V37H38.561V34.584C38.561 33.872 38.137 33.448 37.433 33.448C36.665 33.464 36.177 33.984 36.113 34.736V38.688H35.361V32.768H36.113V33.648C36.409 33.024 36.969 32.752 37.713 32.744Z" fill="white"/>
<path d="M20.5 0L10 8.44646V24H17.224V14.6108H23.776V24H31V8.44646L20.5 0Z" fill="white" fill-opacity="0.5"/>
</svg>
