<svg width="59" height="42" viewBox="0 0 59 42" fill="none" xmlns="http://www.w3.org/2000/svg">
<path d="M3.096 32.3507C4.096 32.3507 4.696 32.9747 4.696 33.9907V36.6067H3.944V34.1907C3.944 33.4787 3.52 33.0547 2.816 33.0547C1.984 33.0707 1.488 33.6787 1.488 34.5267V36.6067H0.736V30.5507H1.488V33.2707C1.784 32.6387 2.344 32.3587 3.096 32.3507ZM11.6239 32.3747H12.3679V36.6067H11.6239V35.7507C11.3599 36.3587 10.8639 36.6227 10.2159 36.6307C9.50394 36.6307 9.03194 36.2387 8.87194 35.5587C8.63194 36.2947 8.10394 36.6227 7.39194 36.6307C6.50394 36.6307 5.98394 36.0147 5.98394 34.9907V32.3747H6.72794V34.7907C6.72794 35.5107 7.03194 35.9347 7.64794 35.9347C8.37594 35.9107 8.80794 35.3027 8.80794 34.4627V32.3747H9.55194V34.7907C9.55194 35.5107 9.84794 35.9347 10.4719 35.9347C11.1119 35.9107 11.5359 35.4307 11.6239 34.7347V32.3747ZM16.1896 32.3507C17.1896 32.3507 17.7896 32.9747 17.7896 33.9907V36.6067H17.0376V34.1907C17.0376 33.4787 16.6136 33.0547 15.9096 33.0547C15.1416 33.0707 14.6536 33.5907 14.5896 34.3427V38.2947H13.8376V32.3747H14.5896V33.2547C14.8856 32.6307 15.4456 32.3587 16.1896 32.3507ZM22.2217 32.3747H22.9657V36.3427C22.9657 37.5747 22.1177 38.3507 20.8137 38.3507C20.1497 38.3507 19.5737 38.1347 19.0697 37.7587L19.3977 37.2147C19.8057 37.5427 20.2377 37.7187 20.7817 37.7187C21.6537 37.7187 22.2217 37.1987 22.2217 36.3667V35.5987C21.9257 36.1187 21.4057 36.4147 20.7257 36.4147C19.5897 36.4147 18.8057 35.5747 18.8057 34.3667C18.8057 33.1827 19.5817 32.3587 20.7017 32.3507C21.3977 32.3427 21.9257 32.6467 22.2217 33.1667V32.3747ZM20.8697 35.8147C21.6617 35.8147 22.2217 35.2227 22.2217 34.3907C22.2217 33.5507 21.6617 32.9587 20.8697 32.9587C20.0777 32.9587 19.5177 33.5587 19.5097 34.3907C19.5177 35.2227 20.0697 35.8147 20.8697 35.8147ZM29.9599 32.3747H30.7039V36.6067H29.9599V35.7507C29.6959 36.3587 29.1999 36.6227 28.5519 36.6307C27.8399 36.6307 27.3679 36.2387 27.2079 35.5587C26.9679 36.2947 26.4399 36.6227 25.7279 36.6307C24.8399 36.6307 24.3199 36.0147 24.3199 34.9907V32.3747H25.0639V34.7907C25.0639 35.5107 25.3679 35.9347 25.9839 35.9347C26.7119 35.9107 27.1439 35.3027 27.1439 34.4627V32.3747H27.8879V34.7907C27.8879 35.5107 28.1839 35.9347 28.8079 35.9347C29.4479 35.9107 29.8719 35.4307 29.9599 34.7347V32.3747ZM36.1815 37.7187H37.3815V38.2947H35.4295V35.7827C35.1175 36.3347 34.5735 36.6467 33.8535 36.6467C32.6375 36.6467 31.8135 35.7587 31.8135 34.4787C31.8135 33.2147 32.6455 32.3427 33.8375 32.3427C34.5655 32.3427 35.1175 32.6547 35.4295 33.2067V32.3747H36.1815V37.7187ZM33.9975 36.0067C34.8375 36.0067 35.4295 35.3827 35.4295 34.5027C35.4295 33.6147 34.8375 32.9907 33.9975 32.9907C33.1655 32.9907 32.5735 33.6227 32.5655 34.5027C32.5735 35.3827 33.1575 36.0067 33.9975 36.0067ZM40.4552 32.3507C41.4552 32.3507 42.0552 32.9747 42.0552 33.9907V36.6067H41.3032V34.1907C41.3032 33.4787 40.8792 33.0547 40.1752 33.0547C39.4072 33.0707 38.9192 33.5907 38.8552 34.3427V38.2947H38.1032V32.3747H38.8552V33.2547C39.1512 32.6307 39.7112 32.3587 40.4552 32.3507ZM45.7833 32.3507C46.7833 32.3507 47.3833 32.9747 47.3833 33.9907V36.6067H46.6313V34.1907C46.6313 33.4787 46.2073 33.0547 45.5033 33.0547C44.7353 33.0707 44.2473 33.5907 44.1833 34.3427V36.6067H43.4313V32.3747H44.1833V33.2547C44.4793 32.6307 45.0393 32.3587 45.7833 32.3507ZM48.9914 36.0307H50.1914V36.6067H48.2394V32.3747H48.9914V36.0307ZM51.0501 37.8067C52.3221 37.2947 51.2581 35.9827 51.2581 34.6067V32.3747H52.0101V34.6947C52.0421 35.9747 53.3941 37.9267 51.0501 38.3507V37.8067ZM56.7139 32.3747H57.4579V36.3427C57.4579 37.5747 56.6099 38.3507 55.3059 38.3507C54.6419 38.3507 54.0659 38.1347 53.5619 37.7587L53.8899 37.2147C54.2979 37.5427 54.7299 37.7187 55.2739 37.7187C56.1459 37.7187 56.7139 37.1987 56.7139 36.3667V35.5987C56.4179 36.1187 55.8979 36.4147 55.2179 36.4147C54.0819 36.4147 53.2979 35.5747 53.2979 34.3667C53.2979 33.1827 54.0739 32.3587 55.1939 32.3507C55.8899 32.3427 56.4179 32.6467 56.7139 33.1667V32.3747ZM55.3619 35.8147C56.1539 35.8147 56.7139 35.2227 56.7139 34.3907C56.7139 33.5507 56.1539 32.9587 55.3619 32.9587C54.5699 32.9587 54.0099 33.5587 54.0019 34.3907C54.0099 35.2227 54.5619 35.8147 55.3619 35.8147Z" fill="white"/>
<path d="M36.6697 9.33492C35.6945 9.33487 34.7362 9.07985 33.89 8.59516C33.0438 8.11047 32.3389 7.41295 31.8455 6.5718H22.6674V5.22758C22.6674 5.02952 22.7461 4.83957 22.8862 4.69952C23.0262 4.55947 23.2162 4.48079 23.4142 4.48079H25.9832V3.97297C25.9832 3.51446 26.1653 3.07473 26.4895 2.75051C26.8137 2.4263 27.2535 2.24415 27.712 2.24415C28.1705 2.24415 28.6102 2.4263 28.9344 2.75051C29.2587 3.07473 29.4408 3.51446 29.4408 3.97297V4.48079H31.1286C31.0946 4.23329 31.0771 3.98381 31.0763 3.734C31.0779 3.47155 31.0978 3.20953 31.136 2.94987H30.7626C30.5477 2.31105 30.1377 1.75582 29.5903 1.36249C29.043 0.969156 28.386 0.757568 27.712 0.757568C27.038 0.757568 26.381 0.969156 25.8337 1.36249C25.2863 1.75582 24.8763 2.31105 24.6614 2.94987H19.4936C19.3107 2.92342 19.1243 2.93605 18.9466 2.98694C18.769 3.03782 18.6042 3.1258 18.463 3.24507C18.3219 3.36434 18.2076 3.51218 18.1278 3.67885C18.048 3.84551 18.0044 4.02721 18 4.21194V23.3447C18.001 23.5114 18.0348 23.6763 18.0995 23.8299C18.1642 23.9836 18.2585 24.123 18.3771 24.2402C18.4957 24.3574 18.6362 24.4501 18.7906 24.513C18.945 24.5759 19.1103 24.6077 19.277 24.6068H36.1395C36.3062 24.6077 36.4715 24.5759 36.6259 24.513C36.7803 24.4501 36.9208 24.3574 37.0394 24.2402C37.158 24.123 37.2523 23.9836 37.317 23.8299C37.3817 23.6763 37.4155 23.5114 37.4165 23.3447V9.28264C37.169 9.31666 36.9195 9.33412 36.6697 9.33492ZM33.5108 12.1055L26.7001 18.9162L22.7869 15.003C22.5889 14.805 22.4776 14.5364 22.4776 14.2563C22.4776 13.9762 22.5889 13.7075 22.7869 13.5095C22.985 13.3114 23.2536 13.2001 23.5337 13.2001C23.8138 13.2001 24.0824 13.3114 24.2805 13.5095L26.715 15.944L32.0471 10.6119C32.1452 10.5139 32.2616 10.4361 32.3897 10.383C32.5179 10.3299 32.6552 10.3026 32.7939 10.3026C32.9326 10.3026 33.0699 10.3299 33.1981 10.383C33.3262 10.4361 33.4426 10.5139 33.5407 10.6119C33.6387 10.71 33.7165 10.8264 33.7696 10.9546C33.8227 11.0827 33.85 11.22 33.85 11.3587C33.85 11.4974 33.8227 11.6347 33.7696 11.7629C33.7165 11.891 33.6387 12.0074 33.5407 12.1055H33.5108Z" fill="white" fill-opacity="0.5"/>
<path d="M36.6697 7.46789C38.7319 7.46789 40.4037 5.79615 40.4037 3.73395C40.4037 1.67174 38.7319 0 36.6697 0C34.6075 0 32.9358 1.67174 32.9358 3.73395C32.9358 5.79615 34.6075 7.46789 36.6697 7.46789Z" fill="white" fill-opacity="0.5"/>
</svg>
