<svg width="48" height="42" viewBox="0 0 48 42" fill="none" xmlns="http://www.w3.org/2000/svg">
<path d="M4.808 32.768H5.56V37H4.808V36.104C4.52 36.736 3.976 37.016 3.248 37.024C2.264 37.024 1.672 36.408 1.672 35.384V31.52H0.472V30.944H2.424V35.184C2.424 35.896 2.84 36.32 3.52 36.32C4.328 36.304 4.808 35.688 4.808 34.848V32.768ZM9.38488 32.744C10.3849 32.744 10.9849 33.368 10.9849 34.384V37H10.2329V34.584C10.2329 33.872 9.80888 33.448 9.10488 33.448C8.33688 33.464 7.84888 33.984 7.78488 34.736V37H7.03288V32.768H7.78488V33.648C8.08088 33.024 8.64088 32.752 9.38488 32.744ZM14.713 32.744C15.713 32.744 16.313 33.368 16.313 34.384V37H15.561V34.584C15.561 33.872 15.137 33.448 14.433 33.448C13.665 33.464 13.177 33.984 13.113 34.736V38.688H12.361V32.768H13.113V33.648C13.409 33.024 13.969 32.752 14.713 32.744ZM20.0411 32.744C21.0411 32.744 21.6411 33.368 21.6411 34.384V37H20.8891V34.584C20.8891 33.872 20.4651 33.448 19.7611 33.448C18.9931 33.464 18.5051 33.984 18.4411 34.736V37H17.6891V32.768H18.4411V33.648C18.7371 33.024 19.2971 32.752 20.0411 32.744ZM23.2493 36.424H24.4493V37H22.4973V32.768H23.2493V36.424ZM31.1719 34.344V34.92H30.3639V35.64C30.3639 36.552 29.6439 37.024 28.8679 37.024C27.9319 37.024 27.2999 36.488 27.2999 35.648C27.2999 34.824 27.9079 34.344 28.8439 34.344H29.5879C29.4679 33.728 28.8519 33.44 28.1159 33.44C27.1879 33.44 26.3239 34.16 26.3239 34.92V38.688H25.5719V32.768H26.3239V33.664C26.7559 33.032 27.5319 32.72 28.3319 32.72C29.4119 32.72 30.3399 33.264 30.3639 34.344H31.1719ZM29.6119 35.648V34.92H28.7399C28.4199 34.92 27.9559 35.104 27.9559 35.664C27.9559 36.144 28.3319 36.432 28.8279 36.432C29.3959 36.432 29.6119 36.088 29.6119 35.648ZM31.4876 38.2C32.7596 37.688 31.6956 36.376 31.6956 35V32.768H32.4476V35.088C32.4796 36.368 33.8316 38.32 31.4876 38.744V38.2ZM36.4474 32.744C37.4474 32.744 38.0474 33.368 38.0474 34.384V37H37.2954V34.584C37.2954 33.872 36.8714 33.448 36.1674 33.448C35.3994 33.464 34.9114 33.984 34.8474 34.736V37H34.0954V32.768H34.8474V33.648C35.1434 33.024 35.7034 32.752 36.4474 32.744ZM39.6555 36.424H40.8555V37H38.9035V32.768H39.6555V36.424ZM45.0502 32.768H45.8022V37H45.0502V36.104C44.7622 36.736 44.2182 37.016 43.4902 37.024C42.5062 37.024 41.9142 36.408 41.9142 35.384V31.52H40.7142V30.944H42.6662V35.184C42.6662 35.896 43.0822 36.32 43.7622 36.32C44.5702 36.304 45.0502 35.688 45.0502 34.848V32.768Z" fill="white"/>
<path d="M33.383 23.8795C32.658 23.6806 32.0182 23.2492 31.5619 22.6517C31.1056 22.0541 30.858 21.3233 30.8571 20.5714V0.642857C30.8571 0.472361 30.7894 0.308848 30.6689 0.188288C30.5483 0.0677293 30.3848 0 30.2143 0H12.6429C12.4724 0 12.3088 0.0677293 12.1883 0.188288C12.0677 0.308848 12 0.472361 12 0.642857V21C12 21.7957 12.3161 22.5587 12.8787 23.1213C13.4413 23.6839 14.2044 24 15 24H33.367C33.3822 24.0006 33.397 23.9955 33.4087 23.9857C33.4203 23.9759 33.4278 23.9621 33.4298 23.947C33.4319 23.932 33.4282 23.9167 33.4195 23.9042C33.4109 23.8917 33.3979 23.8829 33.383 23.8795ZM15.4286 9.42857V4.28571H20.5714V9.42857H15.4286ZM27.4286 19.7143H15.4286V18H27.4286V19.7143ZM27.4286 16.2857H15.4286V14.5714H27.4286V16.2857ZM27.4286 12.8571H15.4286V11.1429H27.4286V12.8571ZM27.4286 9.42857H22.2857V7.71429H27.4286V9.42857ZM27.4286 6H22.2857V4.28571H27.4286V6Z" fill="white"/>
</svg>
