<svg width="48" height="39" viewBox="0 0 48 39" fill="none" xmlns="http://www.w3.org/2000/svg">
<path d="M5.568 29.744C6.448 29.744 6.968 30.368 6.968 31.384V34H6.224V31.584C6.224 30.864 5.928 30.44 5.304 30.44C4.736 30.456 4.336 30.848 4.192 31.424V34H3.448V33.168C3.184 33.752 2.696 34.016 2.056 34.024C1.168 34.024 0.648 33.408 0.648 32.384V29.768H1.392V32.184C1.392 32.904 1.696 33.328 2.312 33.328C2.944 33.304 3.352 32.848 3.448 32.184V29.768H4.192V30.536C4.464 29.992 4.944 29.752 5.568 29.744ZM12.4172 30.352H9.00919V32.184C9.00919 32.896 9.42519 33.32 10.1052 33.32C10.9132 33.304 11.3932 32.688 11.3932 31.848V31.232H12.1452V34H11.3932V33.104C11.1052 33.736 10.5612 34.016 9.83319 34.024C8.84919 34.024 8.26519 33.408 8.26519 32.384V27.944H9.00919V29.776H12.4172V30.352ZM16.5494 29.768H17.3014V34H16.5494V33.104C16.2614 33.736 15.7174 34.016 14.9894 34.024C14.0054 34.024 13.4214 33.408 13.4214 32.384V29.768H14.1654V32.184C14.1654 32.896 14.5814 33.32 15.2614 33.32C16.0694 33.304 16.5494 32.688 16.5494 31.848V29.768ZM24.3271 29.768H25.0711V34H24.3271V33.144C24.0631 33.752 23.5671 34.016 22.9191 34.024C22.2071 34.024 21.7351 33.632 21.5751 32.952C21.3351 33.688 20.8071 34.016 20.0951 34.024C19.2071 34.024 18.6871 33.408 18.6871 32.384V29.768H19.4311V32.184C19.4311 32.904 19.7351 33.328 20.3511 33.328C21.0791 33.304 21.5111 32.696 21.5111 31.856V29.768H22.2551V32.184C22.2551 32.904 22.5511 33.328 23.1751 33.328C23.8151 33.304 24.2391 32.824 24.3271 32.128V29.768ZM29.7377 29.768H30.4897V34H29.7377V33.104C29.4497 33.736 28.9057 34.016 28.1777 34.024C27.1937 34.024 26.6017 33.408 26.6017 32.384V28.52H25.4017V27.944H27.3537V32.184C27.3537 32.896 27.7697 33.32 28.4497 33.32C29.2577 33.304 29.7377 32.688 29.7377 31.848V29.768ZM31.6986 35.2C32.9706 34.688 31.9066 33.376 31.9066 32V29.768H32.6586V32.088C32.6906 33.368 34.0426 35.32 31.6986 35.744V35.2ZM36.6583 29.744C37.6583 29.744 38.2583 30.368 38.2583 31.384V34H37.5063V31.584C37.5063 30.872 37.0823 30.448 36.3783 30.448C35.6103 30.464 35.1223 30.984 35.0583 31.736V34H34.3063V29.768H35.0583V30.648C35.3543 30.024 35.9143 29.752 36.6583 29.744ZM39.8664 33.424H41.0664V34H39.1144V29.768H39.8664V33.424ZM47.7891 31.344V31.92H46.9811V32.64C46.9811 33.552 46.2611 34.024 45.4851 34.024C44.5491 34.024 43.9171 33.488 43.9171 32.648C43.9171 31.824 44.5251 31.344 45.4611 31.344H46.2051C46.0851 30.728 45.4691 30.44 44.7331 30.44C43.8051 30.44 42.9411 31.16 42.9411 31.92V35.688H42.1891V29.768H42.9411V30.664C43.3731 30.032 44.1491 29.72 44.9491 29.72C46.0291 29.72 46.9571 30.264 46.9811 31.344H47.7891ZM46.2291 32.648V31.92H45.3571C45.0371 31.92 44.5731 32.104 44.5731 32.664C44.5731 33.144 44.9491 33.432 45.4451 33.432C46.0131 33.432 46.2291 33.088 46.2291 32.648Z" fill="white"/>
<path d="M30.3986 13.574V17.3704C30.3986 18.2677 29.658 19 28.7532 19H11.6458C10.7409 19 10 18.2677 10 17.3704V1.6296C10 0.73269 10.7406 0 11.6458 0H28.7532C29.658 0 30.3986 0.732331 30.3986 1.6296V5.37821V5.32575L39 1.33063V17.6065L30.3986 13.574Z" fill="white" fill-opacity="0.5"/>
</svg>
